<svg width="19" height="18" viewBox="0 0 19 18" fill="none" xmlns="http://www.w3.org/2000/svg">
<path d="M0.5 2.42005C0.5 1.84284 0.702708 1.36665 1.10811 0.991481C1.51351 0.616295 2.04055 0.428711 2.68919 0.428711C3.32626 0.428711 3.84169 0.613404 4.23552 0.982823C4.64092 1.36378 4.84363 1.86016 4.84363 2.472C4.84363 3.02611 4.64672 3.48786 4.2529 3.85728C3.8475 4.23823 3.31467 4.42871 2.65444 4.42871H2.63707C1.99999 4.42871 1.48456 4.23823 1.09073 3.85728C0.696905 3.47633 0.5 2.99725 0.5 2.42005ZM0.725869 17.5716V6.00447H4.58301V17.5716H0.725869ZM6.72008 17.5716H10.5772V11.1127C10.5772 10.7086 10.6236 10.3969 10.7162 10.1776C10.8784 9.78512 11.1245 9.45323 11.4546 9.18195C11.7847 8.91066 12.1988 8.77503 12.6969 8.77503C13.9942 8.77503 14.6429 9.64659 14.6429 11.3897V17.5716H18.5V10.9395C18.5 9.23101 18.0946 7.9352 17.2838 7.05208C16.473 6.16897 15.4015 5.72741 14.0695 5.72741C12.5753 5.72741 11.4112 6.3681 10.5772 7.64949V7.68412H10.5598L10.5772 7.64949V6.00447H6.72008C6.74324 6.37387 6.75483 7.52249 6.75483 9.45035C6.75483 11.3782 6.74324 14.0853 6.72008 17.5716Z" fill="black"/>
</svg>
