<svg width="19" height="18" viewBox="0 0 19 18" fill="none" xmlns="http://www.w3.org/2000/svg">
<path d="M0.5 2.66175C0.5 2.08454 0.702708 1.60835 1.10811 1.23318C1.51351 0.857994 2.04055 0.67041 2.68919 0.67041C3.32626 0.67041 3.84169 0.855103 4.23552 1.22452C4.64092 1.60547 4.84363 2.10186 4.84363 2.7137C4.84363 3.26781 4.64672 3.72956 4.2529 4.09898C3.8475 4.47993 3.31467 4.67041 2.65444 4.67041H2.63707C1.99999 4.67041 1.48456 4.47993 1.09073 4.09898C0.696905 3.71803 0.5 3.23895 0.5 2.66175ZM0.725869 17.8133V6.24617H4.58301V17.8133H0.725869ZM6.72008 17.8133H10.5772V11.3544C10.5772 10.9503 10.6236 10.6386 10.7162 10.4193C10.8784 10.0268 11.1245 9.69493 11.4546 9.42365C11.7847 9.15236 12.1988 9.01673 12.6969 9.01673C13.9942 9.01673 14.6429 9.88829 14.6429 11.6314V17.8133H18.5V11.1812C18.5 9.47271 18.0946 8.1769 17.2838 7.29378C16.473 6.41067 15.4015 5.96911 14.0695 5.96911C12.5753 5.96911 11.4112 6.6098 10.5772 7.89119V7.92582H10.5598L10.5772 7.89119V6.24617H6.72008C6.74324 6.61557 6.75483 7.76419 6.75483 9.69205C6.75483 11.6199 6.74324 14.327 6.72008 17.8133Z" fill="black"/>
</svg>
